<svg xmlns="http://www.w3.org/2000/svg" version="1.1" xmlns:xlink="http://www.w3.org/1999/xlink" xmlns:svgjs="http://svgjs.com/svgjs" width="1440" height="560" preserveAspectRatio="none" viewBox="0 0 1440 560"><g mask="url(&quot;#SvgjsMask1001&quot;)" fill="none"><rect width="1440" height="560" x="0" y="0" fill="rgba(30, 30, 30, 1)"></rect><path d="M0,452.404C83.263,452.241,131.72,358.959,201.25,313.152C269.739,268.031,359.028,252.75,405.567,185.216C455.418,112.876,482.725,19.033,462.914,-66.557C443.51,-150.391,356.403,-195.019,302.105,-261.775C245.566,-331.286,219.439,-431.631,137.144,-467.07C52.931,-503.336,-49.062,-488.281,-131.72,-448.598C-209.248,-411.378,-243.492,-324.735,-297.96,-258.184C-350.592,-193.877,-427.925,-145.208,-446.351,-64.176C-465.259,18.976,-444.315,110.16,-397.998,181.76C-354.275,249.35,-268.322,268.673,-201.756,313.939C-132.912,360.754,-83.253,452.567,0,452.404" fill="#141414"></path><path d="M1440 920.158C1508.063 937.467 1589.801 920.759 1640.851 872.531 1691.076 825.0830000000001 1679.663 744.25 1696.998 677.367 1710.9479999999999 623.545 1727.257 573.233 1732.766 517.907 1739.936 445.894 1769.96 368.03499999999997 1734.0529999999999 305.202 1697.377 241.022 1618.679 213.834 1547.534 193.772 1476.916 173.85899999999998 1402.3029999999999 171.187 1331.885 191.79500000000002 1261.427 212.41500000000002 1200.493 255.35000000000002 1151.2069999999999 309.759 1101.136 365.03499999999997 1049.509 429.236 1049.243 503.818 1048.984 576.57 1101.876 637.811 1149.843 692.51 1188.529 736.625 1249.415 748.506 1295.578 784.7239999999999 1348.575 826.303 1374.717 903.556 1440 920.158" fill="#292929"></path></g><defs><mask id="SvgjsMask1001"><rect width="1440" height="560" fill="#ffffff"></rect></mask></defs></svg>