<svg xmlns="http://www.w3.org/2000/svg" version="1.1" xmlns:xlink="http://www.w3.org/1999/xlink" xmlns:svgjs="http://svgjs.com/svgjs" width="1440" height="560" preserveAspectRatio="none" viewBox="0 0 1440 560"><g mask="url(&quot;#SvgjsMask1002&quot;)" fill="none"><rect width="1440" height="560" x="0" y="0" fill="rgba(231, 243, 255, 1)"></rect><path d="M967.126,705.925C1020.933,706.437,1076.269,685.821,1101.774,638.441C1126.294,592.892,1106.753,539.819,1080.555,495.214C1054.797,451.358,1017.958,407.472,967.126,409.187C918.066,410.843,890.682,459.886,866.226,502.448C841.901,544.783,815.156,592.176,836.847,635.919C860.321,683.256,914.29,705.422,967.126,705.925" fill="rgba(28, 83, 142, 0.4)" class="triangle-float2"></path><path d="M160.979,383.809C191.448,383.771,225.091,378.521,240.115,352.014C255.004,325.744,242.57,294.047,226.256,268.637C211.491,245.64,188.293,229.671,160.979,228.757C131.934,227.785,103.398,239.563,87.667,263.998C70.565,290.562,65.008,325.265,81.497,352.213C97.446,378.279,130.421,383.847,160.979,383.809" fill="rgba(28, 83, 142, 0.4)" class="triangle-float3"></path><path d="M982.676,394.06C1029.011,394.514,1075.991,380.806,1101.53,342.142C1129.741,299.434,1136.658,243.72,1111.38,199.214C1085.832,154.234,1034.404,132.513,982.676,132.882C931.637,133.246,881.884,156.402,857.113,201.028C832.971,244.52,840.667,298.153,867.79,339.851C892.537,377.895,937.294,393.615,982.676,394.06" fill="rgba(28, 83, 142, 0.4)" class="triangle-float2"></path><path d="M964.745,353.402C990.316,353.425,1010.23,333.18,1022.034,310.496C1032.871,289.671,1032.755,265.26,1021.264,244.789C1009.512,223.853,988.751,208.803,964.745,208.435C940.131,208.057,917.172,221.531,905.141,243.008C893.367,264.026,896.185,289.197,907.631,310.395C919.766,332.871,939.202,353.379,964.745,353.402" fill="rgba(28, 83, 142, 0.4)" class="triangle-float1"></path><path d="M623.317,186.33C660.455,185.948,694.528,164.629,711.785,131.741C727.955,100.925,719.859,65.106,702.857,34.741C685.361,3.495,659.128,-26.259,623.317,-26.256C587.51,-26.253,561.614,3.694,543.8,34.755C526.1,65.617,515.114,102.087,531.641,133.592C549.194,167.052,585.534,186.718,623.317,186.33" fill="rgba(28, 83, 142, 0.4)" class="triangle-float3"></path><path d="M463.217,220.346C509.036,216.817,535.852,173.343,557.432,132.77C577.268,95.475,590.077,53.727,572.193,15.458C551.354,-29.134,512.384,-71.137,463.217,-68.835C416.189,-66.633,393.726,-16.106,370.588,24.896C348.057,64.822,320.361,108.09,339.995,149.518C361.741,195.404,412.589,224.246,463.217,220.346" fill="rgba(28, 83, 142, 0.4)" class="triangle-float2"></path></g><defs><mask id="SvgjsMask1002"><rect width="1440" height="560" fill="#ffffff"></rect></mask><style>
            @keyframes float1 {
                0%{transform: translate(0, 0)}
                50%{transform: translate(-10px, 0)}
                100%{transform: translate(0, 0)}
            }

            .triangle-float1 {
                animation: float1 5s infinite;
            }

            @keyframes float2 {
                0%{transform: translate(0, 0)}
                50%{transform: translate(-5px, -5px)}
                100%{transform: translate(0, 0)}
            }

            .triangle-float2 {
                animation: float2 4s infinite;
            }

            @keyframes float3 {
                0%{transform: translate(0, 0)}
                50%{transform: translate(0, -10px)}
                100%{transform: translate(0, 0)}
            }

            .triangle-float3 {
                animation: float3 6s infinite;
            }
        </style></defs></svg>